<?xml version="1.0" encoding="utf-8"?>
<?xml-stylesheet type="text/xsl" href="rss1.xsl"?>
<rss version="2.0" xmlns:atom="http://www.w3.org/2005/Atom" xmlns:content="http://purl.org/rss/1.0/modules/content/" xmlns:dc="http://purl.org/dc/elements/1.1/" xmlns:media="http://search.yahoo.com/mrss/">
<channel>
 <title>Getty</title>
 <link>http://www.gettyimg.com/</link>
 <atom:link href="http://www.gettyimg.com/" rel="self" type="application/rss+xml" />

 
                <item>
                <title><![CDATA[【Requests】[REQ AUD] - Lana Del Rey Summertime the gershwin version m4a]]></title>
                <link><![CDATA[https://sharemania.us/threads/lana-del-rey-summertime-the-gershwin-version-m4a.242014/]]></link>
                <description><![CDATA[<article>
<blockquote class="messageText SelectQuoteContainer ugc baseHtml">
I need 'summertime the gershwin version' m4a file by lana del rey<br>
Anyone have this?
<div class="messageTextEndMarker">&nbsp;</div>
</blockquote>
</article>]]></description>
                <author><![CDATA[tjdeo0405]]></author>
                </item>

                
                <item>
                <title><![CDATA[【Apple Music】WEB-RiP - Imagine Dragons - Eyes Closed [Apple HD Music Video]]]></title>
                <link><![CDATA[https://sharemania.us/threads/imagine-dragons-eyes-closed-apple-hd-music-video.242013/]]></link>
                <description><![CDATA[<article>
<blockquote class="messageText SelectQuoteContainer ugc baseHtml">
<span style="font-size: 22px"><b>Imagine Dragons - Eyes Closed [Apple HD Music Video]</b></span><br>
<br>
<img src="https://imgur.com/f6niBHa.jpg" class="bbCodeImage LbImage" alt="[​IMG]" data-url="https://imgur.com/f6niBHa.jpg" style=""><br>
<br>
<div class="bbCodeBlock bbCodeCode">
<div class="type">Code:</div>
<pre>General
Format                         : MPEG-4
Codec ID                       : M4V  (isom/iso4/M4V /mp42)
File size                      : 304 MiB
Duration                       : 4 min 8 s
Overall bit rate mode          : Variable
Overall bit rate               : 10.2 Mb/s
Movie name                     : Eyes Closed
Performer                      : Imagine Dragons
Genre                          : Alternative
ContentType                    : Music Video
Recorded date                  : UTC 2024-04-03 07:00:00
Encoded date                   : UTC 2024-04-04 01:25:04
Tagged date                    : UTC 2024-04-04 01:25:04
Copyright                      : ℗ 2024 KIDinaKORNER/Interscope Records
Cover                          : Yes
Rating                         : None
GenreID                        : 1620
AppleStoreCountry              : United Kingdom
AlbumTitleID                   : 358714030
AppleStoreCatalogID            : 1738967348

Video
ID                             : 2
Format                         : AVC
Format/Info                    : Advanced Video Codec
Format profile                 : High@L4
Format settings                : CABAC / 5 Ref Frames
Format settings, CABAC         : Yes
Format settings, Reference fra : 5 frames
Codec ID                       : avc1
Codec ID/Info                  : Advanced Video Coding
Duration                       : 4 min 8 s
Bit rate                       : 9 973 kb/s
Maximum bit rate               : 24.3 Mb/s
Width                          : 1 920 pixels
Height                         : 852 pixels
Display aspect ratio           : 2.25:1
Frame rate mode                : Constant
Frame rate                     : 24.000 FPS
Color space                    : YUV
Chroma subsampling             : 4:2:0
Bit depth                      : 8 bits
Scan type                      : Progressive
Bits/(Pixel*Frame)             : 0.254
Stream size                    : 296 MiB (97%)
Title                          : Core Media Video
Language                       : English
Encoded date                   : UTC 2024-04-01 23:30:06
Tagged date                    : UTC 2024-04-04 01:25:18
Color range                    : Limited
Color primaries                : BT.709
Transfer characteristics       : BT.709
Matrix coefficients            : BT.709
Codec configuration box        : avcC

Audio
ID                             : 1
Format                         : AAC LC
Format/Info                    : Advanced Audio Codec Low Complexity
Codec ID                       : mp4a-40-2
Duration                       : 4 min 8 s
Duration_LastFrame             : -8 ms
Bit rate mode                  : Variable
Bit rate                       : 258 kb/s
Maximum bit rate               : 330 kb/s
Channel(s)                     : 2 channels
Channel layout                 : L R
Sampling rate                  : 48.0 kHz
Frame rate                     : 46.875 FPS (1024 SPF)
Compression mode               : Lossy
Stream size                    : 7.65 MiB (3%)
Title                          : Core Media Audio
Encoded date                   : UTC 2024-04-01 23:23:30
Tagged date                    : UTC 2024-04-04 01:25:18

Text
ID                             : 3
Format                         : EIA-608
Codec ID                       : c608
Duration                       : 4 min 5 s
Bit rate mode                  : Variable
Bit rate                       : 158 b/s
Maximum bit rate               : 1 008 b/s
Frame rate                     : 0.489 FPS
Stream size                    : 4.75 KiB (0%)
Title                          : Core Media Closed Caption
Language                       : English
Forced                         : No
Encoded date                   : UTC 2024-04-01 23:30:06
Tagged date                    : UTC 2024-04-04 01:25:18
</pre>
</div>
<div class="bbCodeBlock bbCodeVfcHH HiddenContent">
<div class="attribution type">Hidden Content:</div>
<blockquote>You must reply before you can see the hidden data contained here.</blockquote>
</div>
<div class="messageTextEndMarker">&nbsp;</div>
</blockquote>
</article>]]></description>
                <author><![CDATA[abby0511]]></author>
                </item>

                </channel></rss>